<?xml version="1.0" encoding="UTF-8"?>
<svg id="Layer_2" data-name="Layer 2" xmlns="http://www.w3.org/2000/svg" viewBox="0 0 353.56 132.78">
  <g id="Layer_1-2" data-name="Layer 1">
    <g>
      <g>
        <g>
          <path d="M252.3,34.39c-.44-4.71-9.68-5.46-13.55-7.5-6.24-3.28-10.67-10.44-17.11-14.82-29.73-20.24-61.25-10.45-92.87-3.43-8.04,1.78-13.41-.69-20.25,6.69-1.85,2-2.45,4.38-3.94,6.04-2.17,2.41-7.78,5.35-8.03,8.03-.56,2.59,5.55,7.01,7.55,7.41,7.19,1.42,20.67-3.12,28.94-3.05,2.62.02,13.86,1.75,15.2,3.32,3.85,7.78-4.69,13.05-7.94,19.01-3.59,6.57-1.93,11.34-10.77,14.18l2,.99-3,2,3.01.5-1.03,1.98c2.38-.93,5.33.27,7.38-.03,7.06-1.04,10.74-14.02,18.06-15.95,3.28,5.21-1.76,7.01-5.47,9.5,3.64.74-1.07,4.37,4.18,4.25,1.56-.04,8.18-1.07,9.23-1.82,2.68-1.92,3.01-9.16,4.1-11.87,1.53-3.83,6.79-6.49,7.97-10.99.5-1.91.17-7.9,1.04-8.03h8.42c-3.46,7.88,7.37,14.74,7.82,19.66.38,4.19-10.56,3.93-8.71,9.64,1.46,4.52,10.24,2.02,12.89-.81.48-.51,5.66-7.75,5.8-8.24.9-3.12-2.02-7.61-.67-11.09,6.17-4.67,10.24,2.57,16.25,4.87,3.66,1.39,12.7,1.75,14.11,2.86,3.26,2.56-.2,12.41,2.32,16.4,2.91,3.15,10.72,1.89,10.98-2.77.1-1.85-1.62-4.86-1.82-7.15-.3-3.45.41-7.49-.32-10.66-.59-2.58-3.08-3.71-3.58-5.4-.93-3.15.78-7.07-1.2-10.26.78-.57,13.74,4.34,13.02-3.45ZM129.76,10.5c24.55-5.5,47.89-12.48,73.38-5.01,6.38,1.87,20.91,8.99,24.22,14.69,2.15,3.7.71,9.07-3.29,10.78-13.91,5.93-48.17-14.31-65.21-16.11-16.96-1.79-31.66,3.54-48.29,2.88,2.1-7.51,13.44-5.94,19.2-7.23ZM166.52,58.25c-1.17,2.56-2.13,9.44-3.3,11.15-1.03,1.5-7.3,1.97-6.28-.75.34-.92,1.91-1.86,2.3-3.71.5-2.39-.36-6.74.41-8.08.26-.45,4.69-2.28,6.24-4.23,3.54-4.47,2.19-13.43,8.52-11.94,2.49,8.86-5.12,11.48-7.89,17.56ZM200.16,60.95c-.13.43-4.75,7.1-5.06,7.42-1.24,1.28-5.97,2.96-7.73,1.78-4.35-2.92,7.55-4.19,8.03-9.04.56-5.73-11.19-12.52-8.01-20.42,6.12-.33,12.98.94,16.97,5.98-8.29,1.99-2.72,9.47-4.19,14.28ZM242.23,55.21c.53,2.89-.13,6.65.13,9.85.22,2.72,3.62,6.32-.08,8.07-8.95,4.22-5.03-7.63-5.43-11.52-.92-9.01-10.24-6.59-17.51-9.44-7.62-2.99-14.22-10.72-21.91-13.02-8.05-2.4-17.67-1.07-26-1.45l.98-5.98c-5.04,4-3.66,12.24-6.96,17.47-3.2,5.08-10.48,7.08-14.99,10.96-3.99,3.44-11.89,18.54-15.95,11,5.84-3.66,5.51-10.32,8.56-15.4,1.74-2.9,6.92-6.69,7.95-10.01.48-1.55.51-15.94-.04-17.04-.2-.41-1.18-1.22-1.5-.98l-1.02,5.99c-13.85-4.3-28.45-1.36-42.39,1.02-2.96,0-1.1-1.37.25-1.76,2.05-.59,6.91,0,6.21-3.26l-10.97.99c-2.03-2.08,6.28-9.47,7.42-11.64l12.23.61c1.07-.4,2.18-.68,3.3-.89,0-.01,0-.03.01-.04,16.7-3.49,30.12-3.92,46.68.71,12.26,3.43,45.21,21.51,55.79,11.94,1.05-.95,3.45-6.84,3.8-6.67,3.34,4.73,6.22,10.87,7.41,16.54.5,2.39-.35,5.11.32,7.67.54,2.07,3.23,3.64,3.71,6.27ZM246.9,36.66c-5.33-.2-9.12-2.82-10.61-7.93,3.29,1.9,9.15,2.17,11.93,3.53,3.15,1.54,2.54,4.55-1.32,4.4Z"/>
          <path d="M124.96,20.58c-.17.03-.34.05-.51.09-.21.05-.42.1-.63.16-.1.03-.19.06-.28.09-.05.02-.1.04-.15.05,0,0-.07.03-.1.04-.02,0-.05.02-.06.03-.01,0-.03.01-.04.02-.03.03-.06.05-.09.08-.26.22-.5.44-.74.67-.25.24-.49.49-.72.76-.03.04-.06.07-.09.11l-.02.06,3.01.51-2.98,2,2.46,1.49c1.67-1.24,2.5-2.38,2.61-4.52.07-1.38-.97-1.31-1.66-1.62Z"/>
        </g>
        <path d="M109.09,23.44c1.42.09,2.83-.2,4.12-.81.36-.17.48-.71.27-1.03-.24-.37-.65-.45-1.03-.27-.08.04-.16.08-.25.11.15-.06-.06.02-.07.03-.15.06-.3.11-.45.16-.29.09-.58.17-.88.22-.08.01-.16.03-.23.04-.22.04.15-.02-.07.01-.16.02-.31.03-.47.04-.31.02-.63.01-.94,0-.39-.03-.77.36-.75.75.02.43.33.72.75.75h0Z"/>
        <path d="M96.83,30.65c1.93,0,1.93-3,0-3s-1.93,3,0,3h0Z"/>
      </g>
      <g>
        <path d="M11.94,88.53c10.25,0,15.44,4.06,15.44,11.62,0,6.25-3.44,10.31-11.31,11.37l12.88,21.25h-4.69l-12.44-21h-7.69v21H0v-44.25h11.94ZM13.19,108.03c6.38,0,10.06-3.12,10.06-7.88s-3.5-7.88-10.19-7.88H4.12v15.75h9.06Z"/>
        <path d="M54.87,88.53l18.62,44.25h-4.62l-4.81-11.75h-23.44l-5,11.75h-4.31l19.31-44.25h4.25ZM42.25,117.28h20.31l-10-24.25-10.31,24.25Z"/>
        <path d="M104.69,88.53v3.75h-15.12v40.5h-4.12v-40.5h-15.12v-3.75h34.38Z"/>
        <path d="M138.56,88.53v3.75h-22.94v15.75h21.5v3.75h-21.5v17.25h23.94v3.75h-28.06v-44.25h27.06Z"/>
        <path d="M152.69,88.53v40.5h20.62v3.75h-24.75v-44.25h4.12Z"/>
        <path d="M201.81,88.53l16.12,37.12,16.12-37.12h5.88v44.25h-4.12v-39h-.12l-16.88,39h-1.81l-17.12-39h-.12v39h-4.12v-44.25h6.19Z"/>
        <path d="M255.75,88.53v44.25h-4.12v-44.25h4.12Z"/>
        <path d="M273.18,88.53l26.94,38.75h.12v-38.75h4.12v44.25h-5.31l-26.94-38.75h-.12v38.75h-4.12v-44.25h5.31Z"/>
        <path d="M329.75,88.53c15.06,0,23.81,8.94,23.81,22.44,0,8.88-5.38,21.81-23.56,21.81h-14.06v-44.25h13.81ZM328.87,129.03c12.31,0,20.56-6.5,20.56-18.06,0-12.37-8.25-18.69-20.75-18.69h-8.62v36.75h8.81Z"/>
      </g>
    </g>
  </g>
</svg>